<?xml version="1.0" encoding="utf-8"?>
<!-- Generator: Adobe Illustrator 25.1.0, SVG Export Plug-In . SVG Version: 6.00 Build 0)  -->
<svg version="1.1" id="Layer_1" xmlns:v="https://vecta.io/nano" opacity="0.1"
	 xmlns="http://www.w3.org/2000/svg" xmlns:xlink="http://www.w3.org/1999/xlink" x="0px" y="0px" viewBox="0 0 193 230"
	 style="enable-background:new 0 0 193 230;" xml:space="preserve">
<style type="text/css">
	.st0{fill:#7FD1F4;}
	.st1{fill:#288DC6;}
	.st2{fill-rule:evenodd;clip-rule:evenodd;fill:#2EA3F2;}
</style>
<path class="st0" d="M219.3,82.4c2.3,2.3,2.6,5.9,0.8,8.6c-34.2,48.9-76.6,91.6-125.2,126.3L91,220c-2.8,2-6.7,1.7-9.1-0.8L64.6,202
	c10.2-10.6,10.1-27.4-0.3-37.8s-27.3-10.5-37.8-0.3l-15.9-15.9c-2.7-2.7-2.7-7.1,0-9.8c0.3-0.3,0.6-0.5,0.9-0.7l3.8-2.7
	c47.4-33.8,88.8-75.5,122.2-123.3c2.3-3.3,7.1-3.8,10-0.9l16.2,16.2c-10.2,10.6-10,27.4,0.4,37.8s27.2,10.5,37.8,0.4L219.3,82.4
	L219.3,82.4z"/>
<path class="st1" d="M227,87.2l-61.8,78.2l-79.9,60.5l-15.4-15.5l-5.5-6.7l5.5-8l1.9-8l-1.1-8.6l-3.2-8l-5.3-6.4l-6.4-4.3l-7-2.1
	h-8.6l-9.1,3.2l-5.4,4.8L13,150.7l20.9-3.1c64.8-9.7,126-35.8,177.7-75.9L227,87.2L227,87.2z"/>
<g>
	<path class="st2" d="M56.8,202.7c0-2.3,0.9-4.5,2.5-6.1l0,0c7.2-7.2,7.2-18.9,0-26.1s-18.9-7.2-26.1,0l0,0c-3.3,3.3-8.8,3.4-12.1,0
		c0,0,0,0,0,0L4.5,154c-6.8-6.8-5.8-18,2-23.5l3.8-2.7l5,7l-3.8,2.7c-3.1,2.2-3.8,6.5-1.6,9.7c0.2,0.3,0.5,0.6,0.7,0.9l16.6,16.6
		l0.1-0.1c10.5-10.5,27.6-10.5,38.1,0s10.5,27.6,0,38.1l0,0l0,0l16.5,16.5c2.4,2.4,6.3,2.8,9.1,0.8l3.8-2.7
		c48.6-34.7,91-77.4,125.2-126.3c1.9-2.7,1.6-6.3-0.8-8.6L202,65l-0.2,0.2l-0.2,0.2c-10.6,10.3-27.5,10.3-38-0.2s-10.5-27.4-0.2-38
		l0.2-0.2l0.2-0.2l-16.3-16.3c-2.6-2.6-6.7-2.6-9.3,0c-0.3,0.3-0.5,0.6-0.7,0.9c-33.4,47.7-74.7,89.4-122.2,123.3l-5-7
		C57,94.4,97.6,53.5,130.5,6.5c5.4-7.7,16.4-8.7,23.1-2l16.3,16.3c3.3,3.3,3.3,8.8,0,12.1c0,0,0,0-0.1,0.1l-0.1,0.1
		c-7.2,7.2-7.2,18.9,0,26.1s18.9,7.2,26.1,0l0.1-0.1c3.3-3.4,8.7-3.4,12.1-0.1c0,0,0,0,0.1,0.1l17.4,17.4c5.2,5.2,6,13.5,1.7,19.6
		c-34.8,49.7-77.8,93.1-127.2,128.4L96,227c-6.2,4.4-14.7,3.7-20.1-1.7l-16.5-16.5C57.7,207.2,56.8,205,56.8,202.7L56.8,202.7z"/>
	<g>
		<path class="st2" d="M115,40.4l3.8,3.8c1.6,1.7,1.6,4.4-0.1,6.1c-1.7,1.6-4.3,1.6-6,0l-3.8-3.8c-1.6-1.7-1.6-4.4,0.1-6.1
			C110.7,38.9,113.3,38.9,115,40.4z"/>
		<path class="st2" d="M130.9,56.3l3.8,3.8c1.6,1.7,1.6,4.4-0.1,6.1c-1.7,1.6-4.2,1.6-5.9,0l-3.8-3.8c-1.6-1.7-1.6-4.4,0.1-6.1
			C126.6,54.7,129.2,54.7,130.9,56.3L130.9,56.3z"/>
		<path class="st2" d="M150.5,82c-1.7,1.7-4.4,1.7-6.1,0l-4.5-4.5c-1.6-1.7-1.6-4.4,0.1-6.1c1.7-1.6,4.3-1.6,5.9,0l4.5,4.5
			C152.2,77.7,152.2,80.4,150.5,82L150.5,82z"/>
		<path class="st2" d="M166.4,97.9c-1.7,1.7-4.4,1.7-6.1,0l-4.5-4.5c-1.6-1.7-1.6-4.4,0.1-6.1c1.7-1.6,4.3-1.6,6,0l4.5,4.5
			C168.1,93.6,168.1,96.3,166.4,97.9z"/>
		<path class="st2" d="M177.8,103.2l3.8,3.8c1.6,1.7,1.6,4.4-0.1,6.1c-1.7,1.6-4.3,1.6-5.9,0l-3.8-3.8c-1.6-1.7-1.6-4.4,0.1-6.1
			C173.5,101.6,176.1,101.6,177.8,103.2z"/>
		<path class="st2" d="M193.6,119.1l3.8,3.8c1.6,1.7,1.6,4.4-0.1,6.1c-1.7,1.6-4.3,1.6-5.9,0l-3.8-3.8c-1.6-1.7-1.6-4.4,0.1-6.1
			C189.4,117.5,192,117.5,193.6,119.1z"/>
		
			<image style="overflow:visible;" width="160" height="160" xlink:href="illustration/logo.png"  transform="matrix(0.4634 0 0 0.4634 68 83.2997)">
		</image>
	</g>
</g>
</svg>
